<svg xmlns="http://www.w3.org/2000/svg" viewBox="0 0 760 280" font-family="system-ui,-apple-system,sans-serif">
  <rect width="760" height="280" rx="16" fill="#f0fdf4"/>

  <!-- Title -->
  <text x="380" y="32" text-anchor="middle" font-size="14" font-weight="800" fill="#14532d">Kekuatan Kata Sandi — Perbandingan Waktu Bobol</text>
  <text x="380" y="50" text-anchor="middle" font-size="11" fill="#166534">Semakin panjang dan beragam, semakin aman!</text>

  <!-- Column headers -->
  <rect x="20" y="64" width="720" height="28" rx="8" fill="#166534"/>
  <text x="190" y="82" text-anchor="middle" font-size="11" fill="white" font-weight="700">Contoh Kata Sandi</text>
  <text x="430" y="82" text-anchor="middle" font-size="11" fill="white" font-weight="700">Karakter</text>
  <text x="570" y="82" text-anchor="middle" font-size="11" fill="white" font-weight="700">Waktu Bobol</text>
  <text x="690" y="82" text-anchor="middle" font-size="11" fill="white" font-weight="700">Tingkat</text>

  <!-- Row 1 -->
  <rect x="20" y="96" width="720" height="36" rx="0" fill="#fee2e2"/>
  <text x="40" y="118" font-size="11" fill="#7f1d1d" font-family="monospace">password</text>
  <text x="430" y="118" text-anchor="middle" font-size="11" fill="#7f1d1d">8 huruf kecil</text>
  <text x="570" y="118" text-anchor="middle" font-size="12" fill="#dc2626" font-weight="800">&lt; 1 detik</text>
  <rect x="630" y="103" width="100" height="22" rx="11" fill="#dc2626"/>
  <text x="680" y="118" text-anchor="middle" font-size="10" fill="white" font-weight="700">Sangat Lemah</text>

  <!-- Row 2 -->
  <rect x="20" y="132" width="720" height="36" rx="0" fill="#fef3c7"/>
  <text x="40" y="154" font-size="11" fill="#713f12" font-family="monospace">Password1</text>
  <text x="430" y="154" text-anchor="middle" font-size="11" fill="#713f12">+ angka + kapital</text>
  <text x="570" y="154" text-anchor="middle" font-size="12" fill="#d97706" font-weight="800">3 jam</text>
  <rect x="630" y="139" width="100" height="22" rx="11" fill="#f97316"/>
  <text x="680" y="154" text-anchor="middle" font-size="10" fill="white" font-weight="700">Lemah</text>

  <!-- Row 3 -->
  <rect x="20" y="168" width="720" height="36" rx="0" fill="#fef9c3"/>
  <text x="40" y="190" font-size="11" fill="#713f12" font-family="monospace">P@ssw0rd123</text>
  <text x="430" y="190" text-anchor="middle" font-size="11" fill="#713f12">+ simbol, 11 karakter</text>
  <text x="570" y="190" text-anchor="middle" font-size="12" fill="#b45309" font-weight="800">2 minggu</text>
  <rect x="630" y="175" width="100" height="22" rx="11" fill="#eab308"/>
  <text x="680" y="190" text-anchor="middle" font-size="10" fill="white" font-weight="700">Sedang</text>

  <!-- Row 4 -->
  <rect x="20" y="204" width="720" height="36" rx="0" fill="#f0fdf4"/>
  <text x="40" y="226" font-size="11" fill="#14532d" font-family="monospace">Kucing!Berlari@2024</text>
  <text x="430" y="226" text-anchor="middle" font-size="11" fill="#14532d">18 karakter campuran</text>
  <text x="570" y="226" text-anchor="middle" font-size="12" fill="#16a34a" font-weight="800">74 tahun</text>
  <rect x="630" y="211" width="100" height="22" rx="11" fill="#16a34a"/>
  <text x="680" y="226" text-anchor="middle" font-size="10" fill="white" font-weight="700">Kuat</text>

  <!-- Row 5 -->
  <rect x="20" y="240" width="720" height="36" rx="0" fill="#dcfce7"/>
  <text x="40" y="262" font-size="11" fill="#14532d" font-family="monospace">Meja-Hijau-Terbang-99!</text>
  <text x="430" y="262" text-anchor="middle" font-size="11" fill="#14532d">22 karakter passphrase</text>
  <text x="570" y="262" text-anchor="middle" font-size="12" fill="#15803d" font-weight="800">Jutaan tahun</text>
  <rect x="630" y="247" width="100" height="22" rx="11" fill="#15803d"/>
  <text x="680" y="262" text-anchor="middle" font-size="10" fill="white" font-weight="700">Sangat Kuat</text>
</svg>
